<svg width="612" height="618" viewBox="0 0 612 618" fill="none" xmlns="http://www.w3.org/2000/svg">
<mask id="path-1-inside-1_259_33" fill="white">
<rect width="89.3962" height="89.3962" rx="5"/>
</mask>
<rect width="89.3962" height="89.3962" rx="5" fill="#D9D9D9" stroke="#F7EED2" stroke-width="16" mask="url(#path-1-inside-1_259_33)"/>
<mask id="path-2-inside-2_259_33" fill="white">
<rect x="104.151" width="89.3962" height="89.3962" rx="5"/>
</mask>
<rect x="104.151" width="89.3962" height="89.3962" rx="5" fill="#C7C1B6" stroke="#F7EED2" stroke-width="16" mask="url(#path-2-inside-2_259_33)"/>
<mask id="path-3-inside-3_259_33" fill="white">
<rect x="208.302" width="89.3962" height="89.3962" rx="5"/>
</mask>
<rect x="208.302" width="89.3962" height="89.3962" rx="5" fill="#7E675C" stroke="#F7EED2" stroke-width="16" mask="url(#path-3-inside-3_259_33)"/>
<mask id="path-4-inside-4_259_33" fill="white">
<rect x="312.452" width="89.3962" height="89.3962" rx="5"/>
</mask>
<rect x="312.452" width="89.3962" height="89.3962" rx="5" fill="#4E3F39" stroke="#F7EED2" stroke-width="16" mask="url(#path-4-inside-4_259_33)"/>
<mask id="path-5-inside-5_259_33" fill="white">
<rect x="416.604" width="89.3962" height="89.3962" rx="5"/>
</mask>
<rect x="416.604" width="89.3962" height="89.3962" rx="5" fill="#3F3F3F" stroke="#F7EED2" stroke-width="16" mask="url(#path-5-inside-5_259_33)"/>
<mask id="path-6-inside-6_259_33" fill="white">
<rect y="107.623" width="89.3962" height="89.3962" rx="5"/>
</mask>
<rect y="107.623" width="89.3962" height="89.3962" rx="5" fill="#E7B7C5" stroke="#F7EED2" stroke-width="16" mask="url(#path-6-inside-6_259_33)"/>
<mask id="path-7-inside-7_259_33" fill="white">
<rect x="104.151" y="107.623" width="89.3962" height="89.3962" rx="5"/>
</mask>
<rect x="104.151" y="107.623" width="89.3962" height="89.3962" rx="5" fill="#B057A1" stroke="#F7EED2" stroke-width="16" mask="url(#path-7-inside-7_259_33)"/>
<mask id="path-8-inside-8_259_33" fill="white">
<rect x="208.302" y="107.623" width="89.3962" height="89.3962" rx="5"/>
</mask>
<rect x="208.302" y="107.623" width="89.3962" height="89.3962" rx="5" fill="#AD4564" stroke="#F7EED2" stroke-width="16" mask="url(#path-8-inside-8_259_33)"/>
<mask id="path-9-inside-9_259_33" fill="white">
<rect x="312.452" y="107.623" width="89.3962" height="89.3962" rx="5"/>
</mask>
<rect x="312.452" y="107.623" width="89.3962" height="89.3962" rx="5" fill="#922C4A" stroke="#F7EED2" stroke-width="16" mask="url(#path-9-inside-9_259_33)"/>
<mask id="path-10-inside-10_259_33" fill="white">
<rect x="416.604" y="107.623" width="89.3962" height="89.3962" rx="5"/>
</mask>
<rect x="416.604" y="107.623" width="89.3962" height="89.3962" rx="5" fill="#712F47" stroke="#F7EED2" stroke-width="16" mask="url(#path-10-inside-10_259_33)"/>
<mask id="path-11-inside-11_259_33" fill="white">
<rect y="212.642" width="89.3962" height="89.3962" rx="5"/>
</mask>
<rect y="212.642" width="89.3962" height="89.3962" rx="5" fill="#F6C5B6" stroke="#F7EED2" stroke-width="16" mask="url(#path-11-inside-11_259_33)"/>
<mask id="path-12-inside-12_259_33" fill="white">
<rect x="104.151" y="212.642" width="89.3962" height="89.3962" rx="5"/>
</mask>
<rect x="104.151" y="212.642" width="89.3962" height="89.3962" rx="5" fill="#F4BF99" stroke="#F7EED2" stroke-width="16" mask="url(#path-12-inside-12_259_33)"/>
<mask id="path-13-inside-13_259_33" fill="white">
<rect x="208.302" y="212.642" width="89.3962" height="89.3962" rx="5"/>
</mask>
<rect x="208.302" y="212.642" width="89.3962" height="89.3962" rx="5" fill="#FA8C6A" stroke="#F7EED2" stroke-width="16" mask="url(#path-13-inside-13_259_33)"/>
<mask id="path-14-inside-14_259_33" fill="white">
<rect x="312.452" y="212.642" width="89.3962" height="89.3962" rx="5"/>
</mask>
<rect x="312.452" y="212.642" width="89.3962" height="89.3962" rx="5" fill="#D8884F" stroke="#F7EED2" stroke-width="16" mask="url(#path-14-inside-14_259_33)"/>
<mask id="path-15-inside-15_259_33" fill="white">
<rect x="416.604" y="212.642" width="89.3962" height="89.3962" rx="5"/>
</mask>
<rect x="416.604" y="212.642" width="89.3962" height="89.3962" rx="5" fill="#AD5E25" stroke="#F7EED2" stroke-width="16" mask="url(#path-15-inside-15_259_33)"/>
<mask id="path-16-inside-16_259_33" fill="white">
<rect y="317" width="89.3962" height="89.3962" rx="5"/>
</mask>
<rect y="317" width="89.3962" height="89.3962" rx="5" fill="#ECDE97" stroke="#F7EED2" stroke-width="16" mask="url(#path-16-inside-16_259_33)"/>
<mask id="path-17-inside-17_259_33" fill="white">
<rect x="104.151" y="317" width="89.3962" height="89.3962" rx="5"/>
</mask>
<rect x="104.151" y="317" width="89.3962" height="89.3962" rx="5" fill="#DCD87E" stroke="#F7EED2" stroke-width="16" mask="url(#path-17-inside-17_259_33)"/>
<mask id="path-18-inside-18_259_33" fill="white">
<rect x="208.302" y="317" width="89.3962" height="89.3962" rx="5"/>
</mask>
<rect x="208.302" y="317" width="89.3962" height="89.3962" rx="5" fill="#EACC0A" stroke="#F7EED2" stroke-width="16" mask="url(#path-18-inside-18_259_33)"/>
<mask id="path-19-inside-19_259_33" fill="white">
<rect x="312.452" y="317" width="89.3962" height="89.3962" rx="5"/>
</mask>
<rect x="312.452" y="317" width="89.3962" height="89.3962" rx="5" fill="#EAB90A" stroke="#F7EED2" stroke-width="16" mask="url(#path-19-inside-19_259_33)"/>
<mask id="path-20-inside-20_259_33" fill="white">
<rect x="416.604" y="317" width="89.3962" height="89.3962" rx="5"/>
</mask>
<rect x="416.604" y="317" width="89.3962" height="89.3962" rx="5" fill="#BC9A42" stroke="#F7EED2" stroke-width="16" mask="url(#path-20-inside-20_259_33)"/>
<mask id="path-21-inside-21_259_33" fill="white">
<rect x="522.604" width="89.3962" height="89.3962" rx="5"/>
</mask>
<rect x="522.604" width="89.3962" height="89.3962" rx="5" fill="#3B3938" stroke="#F7EED2" stroke-width="16" mask="url(#path-21-inside-21_259_33)"/>
<mask id="path-22-inside-22_259_33" fill="white">
<rect x="522.604" y="107.623" width="89.3962" height="89.3962" rx="5"/>
</mask>
<rect x="522.604" y="107.623" width="89.3962" height="89.3962" rx="5" fill="#6C1C39" stroke="#F7EED2" stroke-width="16" mask="url(#path-22-inside-22_259_33)"/>
<mask id="path-23-inside-23_259_33" fill="white">
<rect x="522.604" y="212.642" width="89.3962" height="89.3962" rx="5"/>
</mask>
<rect x="522.604" y="212.642" width="89.3962" height="89.3962" rx="5" fill="#864E26" stroke="#F7EED2" stroke-width="16" mask="url(#path-23-inside-23_259_33)"/>
<mask id="path-24-inside-24_259_33" fill="white">
<rect x="522.604" y="317" width="89.3962" height="89.3962" rx="5"/>
</mask>
<rect x="522.604" y="317" width="89.3962" height="89.3962" rx="5" fill="#7F7647" stroke="#F7EED2" stroke-width="16" mask="url(#path-24-inside-24_259_33)"/>
<mask id="path-25-inside-25_259_33" fill="white">
<rect y="423" width="89.3962" height="89.3962" rx="5"/>
</mask>
<rect y="423" width="89.3962" height="89.3962" rx="5" fill="#CCDDAF" stroke="#F7EED2" stroke-width="16" mask="url(#path-25-inside-25_259_33)"/>
<mask id="path-26-inside-26_259_33" fill="white">
<rect x="104.151" y="423" width="89.3962" height="89.3962" rx="5"/>
</mask>
<rect x="104.151" y="423" width="89.3962" height="89.3962" rx="5" fill="#7DC48D" stroke="#F7EED2" stroke-width="16" mask="url(#path-26-inside-26_259_33)"/>
<mask id="path-27-inside-27_259_33" fill="white">
<rect x="208.302" y="423" width="89.3962" height="89.3962" rx="5"/>
</mask>
<rect x="208.302" y="423" width="89.3962" height="89.3962" rx="5" fill="#4B9B5C" stroke="#F7EED2" stroke-width="16" mask="url(#path-27-inside-27_259_33)"/>
<mask id="path-28-inside-28_259_33" fill="white">
<rect x="312.452" y="423" width="89.3962" height="89.3962" rx="5"/>
</mask>
<rect x="312.452" y="423" width="89.3962" height="89.3962" rx="5" fill="#41703A" stroke="#F7EED2" stroke-width="16" mask="url(#path-28-inside-28_259_33)"/>
<mask id="path-29-inside-29_259_33" fill="white">
<rect x="416.604" y="423" width="89.3962" height="89.3962" rx="5"/>
</mask>
<rect x="416.604" y="423" width="89.3962" height="89.3962" rx="5" fill="#3C5217" stroke="#F7EED2" stroke-width="16" mask="url(#path-29-inside-29_259_33)"/>
<mask id="path-30-inside-30_259_33" fill="white">
<rect x="522.604" y="423" width="89.3962" height="89.3962" rx="5"/>
</mask>
<rect x="522.604" y="423" width="89.3962" height="89.3962" rx="5" fill="#1E3E27" stroke="#F7EED2" stroke-width="16" mask="url(#path-30-inside-30_259_33)"/>
<mask id="path-31-inside-31_259_33" fill="white">
<rect y="528" width="89.3962" height="89.3962" rx="5"/>
</mask>
<rect y="528" width="89.3962" height="89.3962" rx="5" fill="#84D5D5" stroke="#F7EED2" stroke-width="16" mask="url(#path-31-inside-31_259_33)"/>
<mask id="path-32-inside-32_259_33" fill="white">
<rect x="104.151" y="528" width="89.3962" height="89.3962" rx="5"/>
</mask>
<rect x="104.151" y="528" width="89.3962" height="89.3962" rx="5" fill="#4D92C3" stroke="#F7EED2" stroke-width="16" mask="url(#path-32-inside-32_259_33)"/>
<mask id="path-33-inside-33_259_33" fill="white">
<rect x="208.302" y="528" width="89.3962" height="89.3962" rx="5"/>
</mask>
<rect x="208.302" y="528" width="89.3962" height="89.3962" rx="5" fill="#426D8B" stroke="#F7EED2" stroke-width="16" mask="url(#path-33-inside-33_259_33)"/>
<mask id="path-34-inside-34_259_33" fill="white">
<rect x="312.452" y="528" width="89.3962" height="89.3962" rx="5"/>
</mask>
<rect x="312.452" y="528" width="89.3962" height="89.3962" rx="5" fill="#364198" stroke="#F7EED2" stroke-width="16" mask="url(#path-34-inside-34_259_33)"/>
<mask id="path-35-inside-35_259_33" fill="white">
<rect x="416.604" y="528" width="89.3962" height="89.3962" rx="5"/>
</mask>
<rect x="416.604" y="528" width="89.3962" height="89.3962" rx="5" fill="#3E4474" stroke="#F7EED2" stroke-width="16" mask="url(#path-35-inside-35_259_33)"/>
<mask id="path-36-inside-36_259_33" fill="white">
<rect x="522.604" y="528" width="89.3962" height="89.3962" rx="5"/>
</mask>
<rect x="522.604" y="528" width="89.3962" height="89.3962" rx="5" fill="#382364" stroke="#F7EED2" stroke-width="16" mask="url(#path-36-inside-36_259_33)"/>
</svg>
