<svg width="500" height="500" viewBox="0 0 500 500" fill="none" xmlns="http://www.w3.org/2000/svg">
<path fill-rule="evenodd" clip-rule="evenodd" d="M181.79 119.278C171.851 159.014 172.512 206.059 172.512 234H151C151 193.996 151.153 153.141 160.914 114.112C166.254 92.7644 174.504 72.1067 187.6 56.6111C201.023 40.7292 218.669 30 242.783 30C266.785 30 285.867 40.3949 299.336 55.9844C312.474 71.1909 320.742 91.5158 326.09 112.648C336.078 152.122 336 193.529 336 234H315.922C315.922 204.117 315.157 157.105 305.229 117.872C300.269 98.271 293.075 81.569 283.021 69.9319C273.298 58.678 260.011 51.3986 242.783 51.3986C225.666 51.3986 213.835 58.822 204.066 70.3814C193.97 82.3271 186.758 99.4137 181.79 119.278Z" fill="#00FF00"/>
<path d="M172.475 233.998C172.475 206.063 171.815 159.03 181.755 119.303C186.725 99.4431 193.938 82.3602 204.036 70.4171C213.808 58.8602 225.642 51.4364 242.762 51.4364C259.994 51.4364 273.284 58.7163 283.01 69.9678C293.066 81.6022 300.261 98.3006 305.222 117.897C307.378 126.415 308.855 135.163 310.18 144.143C308.528 132.232 306.542 120.465 303.621 109.18C298.561 89.6389 293.795 79.2103 282.932 66.9212C272.222 54.8057 256.828 43.3879 237.747 43.3879C218.717 43.3879 206.163 51.6593 195.432 64.0687C184.549 76.654 177.068 94.2635 172.004 114.05C162.025 153.046 161 193.951 161 233.998H172.475Z" fill="#1F1F1F" fill-opacity="0.14"/>
<path d="M241.328 30.0427C262.114 30.8857 276.696 41.9669 288.67 55.5111C301.003 69.4632 309.529 86.4128 314.779 106.691C325.333 147.454 326.676 192.636 325.959 234H336C336 193.905 335.981 151.755 326.087 112.675C320.739 91.5469 312.469 71.2264 299.328 56.0233C285.138 39.6073 263.26 29.2477 241.328 30.0427Z" fill="#1F1F1F" fill-opacity="0.14"/>
</svg>
