<svg width="500" height="500" viewBox="0 0 500 500" fill="none" xmlns="http://www.w3.org/2000/svg">
<path fill-rule="evenodd" clip-rule="evenodd" d="M196.623 112.278C186.738 152.014 187.395 199.059 187.395 227H166C166 186.996 166.152 146.141 175.861 107.112C181.171 85.7644 189.377 65.1067 202.402 49.6111C215.752 33.7292 233.304 23 257.287 23C281.16 23 300.138 33.3949 313.534 48.9844C326.601 64.1909 334.824 84.5158 340.143 105.648C350.078 145.122 350 186.529 350 227H330.031C330.031 197.117 329.269 150.105 319.395 110.872C314.462 91.2709 307.307 74.569 297.308 62.9319C287.637 51.678 274.422 44.3986 257.287 44.3986C240.262 44.3986 228.495 51.822 218.779 63.3814C208.737 75.3271 201.565 92.4137 196.623 112.278Z" fill="#00FF00" fill-opacity="0.7"/>
<path d="M187.41 226.998C187.41 199.063 186.753 152.03 196.637 112.303C201.578 92.4431 208.75 75.3602 218.79 63.4171C228.506 51.8602 240.272 44.4364 257.295 44.4364C274.429 44.4364 287.643 51.7163 297.312 62.9678C307.311 74.6022 314.465 91.3006 319.398 110.897C321.542 119.415 323.01 128.163 324.328 137.143C322.685 125.232 320.711 113.465 317.806 102.18C312.775 82.6389 308.037 72.2103 297.235 59.9212C286.586 47.8057 271.281 36.3879 252.309 36.3879C233.388 36.3879 220.905 44.6593 210.235 57.0687C199.414 69.654 191.976 87.2635 186.941 107.05C177.019 146.046 176 186.951 176 226.998H187.41Z" fill="#1F1F1F" fill-opacity="0.14"/>
<path d="M255.869 23.0427C276.536 23.8857 291.035 34.9669 302.94 48.5111C315.203 62.4632 323.68 79.4128 328.9 99.6912C339.394 140.454 340.73 185.636 340.016 227H350C350 186.905 349.981 144.755 340.144 105.675C334.826 84.5469 326.603 64.2264 313.537 49.0233C299.429 32.6073 277.676 22.2477 255.869 23.0427Z" fill="#1F1F1F" fill-opacity="0.14"/>
</svg>
