<svg width="30" height="30" viewBox="0 0 30 30" fill="none" xmlns="http://www.w3.org/2000/svg"><g clip-path="url(#clip0_14_310)"><g clip-path="url(#clip1_14_310)"><path d="M5 25L5 5L15 3L25 3L30 7L30 28L7 28L5 25Z" fill="#232323" fill-opacity="0.1"/><path class="wb-base" d="M5 5L8.5 2H28V22H8.5L5 24.7812V5Z" fill="#922C4A"/><path class="wb-lines-stroke" d="M28 2.5H8.5M8.5 2.5V8.5M8.5 2.5L4.5 6M8.5 8.5L4.5 12M8.5 8.5H28M8.5 8.5V15.5M8.5 15.5L4.5 19M8.5 15.5H28M8.5 15.5V21.5M8.5 21.5L4 25M8.5 21.5H28" stroke="#772C42"/><path class="wb-side" d="M28 22H25V25L28 22Z" fill="#772C42"/><path d="M26 22L26 2H28V22H26Z" fill="#232323" fill-opacity="0.1"/><path d="M9 22L9 2H11L11 22H9Z" fill="#9B9B9B" fill-opacity="0.1"/></g></g><defs><clipPath id="clip0_14_310"><rect width="30" height="30" fill="white"/></clipPath><clipPath id="clip1_14_310"><rect width="25" height="26" fill="white" transform="translate(5 2)"/></clipPath></defs></svg>