<svg width="30" height="30" viewBox="0 0 30 30" fill="none" xmlns="http://www.w3.org/2000/svg"><g clip-path="url(#clip0_14_328)"><path d="M25 5L25 25H5L9 28H30L30 7L25 5Z" fill="#232323" fill-opacity="0.1"/><path class="wb-lines-fill" d="M5 5L8 2V5H5Z" fill="#772C42"/><path class="wb-lines-fill" d="M5 25L8 22H28L24.9375 25H5Z" fill="#772C42"/><path class="wb-base" d="M28 2H8V22H28V2Z" fill="#922C4A"/><path class="wb-lines-stroke" d="M8.5 2V22M14.5 2V22M21.5 2V22M27.5 2V22" stroke="#772C42"/><path d="M8 20H28V22H8V20Z" fill="#232323" fill-opacity="0.1"/><path d="M8 2L28 2V4H8V2Z" fill="#9B9B9B" fill-opacity="0.1"/></g><defs><clipPath id="clip0_14_328"><rect width="30" height="30" fill="white"/></clipPath></defs></svg>